<svg xmlns="http://www.w3.org/2000/svg" version="1.1" xmlns:xlink="http://www.w3.org/1999/xlink" xmlns:svgjs="http://svgjs.dev/svgjs" width="1920" height="1080" preserveAspectRatio="none" viewBox="0 0 1920 1080"><g mask="url(&quot;#SvgjsMask1201&quot;)" fill="none"><rect width="1920" height="1080" x="0" y="0" fill="rgba(24, 26, 32, 1)"></rect><path d="M619 740.17L741.98 811.17L741.98 953.17L619 1024.17L496.02 953.17L496.02 811.17zM987.93 527.17L1110.91 598.17L1110.91 740.17L987.93 811.17L864.95 740.17L864.95 598.17zM1233.89 101.17L1356.87 172.17L1356.87 314.17L1233.89 385.17L1110.91 314.17L1110.91 172.17zM1479.85 101.17L1602.83 172.17L1602.83 314.17L1479.85 385.17L1356.87 314.17L1356.87 172.17zM1479.85 953.17L1602.83 1024.17L1602.83 1166.17L1479.85 1237.17L1356.87 1166.17L1356.87 1024.17z" stroke="#03305d" stroke-width="2"></path><path d="M604.8 740.17 a14.2 14.2 0 1 0 28.4 0 a14.2 14.2 0 1 0 -28.4 0zM727.78 811.17 a14.2 14.2 0 1 0 28.4 0 a14.2 14.2 0 1 0 -28.4 0zM727.78 953.17 a14.2 14.2 0 1 0 28.4 0 a14.2 14.2 0 1 0 -28.4 0zM604.8 1024.17 a14.2 14.2 0 1 0 28.4 0 a14.2 14.2 0 1 0 -28.4 0zM481.82 953.17 a14.2 14.2 0 1 0 28.4 0 a14.2 14.2 0 1 0 -28.4 0zM481.82 811.17 a14.2 14.2 0 1 0 28.4 0 a14.2 14.2 0 1 0 -28.4 0zM973.73 527.17 a14.2 14.2 0 1 0 28.4 0 a14.2 14.2 0 1 0 -28.4 0zM1096.71 598.17 a14.2 14.2 0 1 0 28.4 0 a14.2 14.2 0 1 0 -28.4 0zM1096.71 740.17 a14.2 14.2 0 1 0 28.4 0 a14.2 14.2 0 1 0 -28.4 0zM973.73 811.17 a14.2 14.2 0 1 0 28.4 0 a14.2 14.2 0 1 0 -28.4 0zM850.75 740.17 a14.2 14.2 0 1 0 28.4 0 a14.2 14.2 0 1 0 -28.4 0zM850.75 598.17 a14.2 14.2 0 1 0 28.4 0 a14.2 14.2 0 1 0 -28.4 0zM1219.69 101.17 a14.2 14.2 0 1 0 28.4 0 a14.2 14.2 0 1 0 -28.4 0zM1342.67 172.17 a14.2 14.2 0 1 0 28.4 0 a14.2 14.2 0 1 0 -28.4 0zM1342.67 314.17 a14.2 14.2 0 1 0 28.4 0 a14.2 14.2 0 1 0 -28.4 0zM1219.69 385.17 a14.2 14.2 0 1 0 28.4 0 a14.2 14.2 0 1 0 -28.4 0zM1096.71 314.17 a14.2 14.2 0 1 0 28.4 0 a14.2 14.2 0 1 0 -28.4 0zM1096.71 172.17 a14.2 14.2 0 1 0 28.4 0 a14.2 14.2 0 1 0 -28.4 0zM1465.65 101.17 a14.2 14.2 0 1 0 28.4 0 a14.2 14.2 0 1 0 -28.4 0zM1588.63 172.17 a14.2 14.2 0 1 0 28.4 0 a14.2 14.2 0 1 0 -28.4 0zM1588.63 314.17 a14.2 14.2 0 1 0 28.4 0 a14.2 14.2 0 1 0 -28.4 0zM1465.65 385.17 a14.2 14.2 0 1 0 28.4 0 a14.2 14.2 0 1 0 -28.4 0zM1465.65 953.17 a14.2 14.2 0 1 0 28.4 0 a14.2 14.2 0 1 0 -28.4 0zM1588.63 1024.17 a14.2 14.2 0 1 0 28.4 0 a14.2 14.2 0 1 0 -28.4 0zM1588.63 1166.17 a14.2 14.2 0 1 0 28.4 0 a14.2 14.2 0 1 0 -28.4 0zM1465.65 1237.17 a14.2 14.2 0 1 0 28.4 0 a14.2 14.2 0 1 0 -28.4 0zM1342.67 1166.17 a14.2 14.2 0 1 0 28.4 0 a14.2 14.2 0 1 0 -28.4 0zM1342.67 1024.17 a14.2 14.2 0 1 0 28.4 0 a14.2 14.2 0 1 0 -28.4 0z" fill="#03305d"></path><path d="M36.3 634.33L104.72 673.83L104.72 752.83L36.3 792.33L-32.12 752.83L-32.12 673.83zM36.3 871.33L104.72 910.83L104.72 989.83L36.3 1029.33L-32.12 989.83L-32.12 910.83zM104.72 989.83L173.14 1029.33L173.14 1108.33L104.72 1147.83L36.3 1108.33L36.3 1029.33zM241.55 41.83L309.97 81.33L309.97 160.33L241.55 199.83L173.14 160.33L173.14 81.33zM173.14 634.33L241.55 673.83L241.55 752.83L173.14 792.33L104.72 752.83L104.72 673.83zM241.55 989.83L309.97 1029.33L309.97 1108.33L241.55 1147.83L173.14 1108.33L173.14 1029.33zM378.39 515.83L446.81 555.33L446.81 634.33L378.39 673.83L309.97 634.33L309.97 555.33zM309.97 634.33L378.39 673.83L378.39 752.83L309.97 792.33L241.55 752.83L241.55 673.83zM515.23 41.83L583.64 81.33L583.64 160.33L515.23 199.83L446.81 160.33L446.81 81.33zM446.81 871.33L515.23 910.83L515.23 989.83L446.81 1029.33L378.39 989.83L378.39 910.83zM652.06 41.83L720.48 81.33L720.48 160.33L652.06 199.83L583.64 160.33L583.64 81.33zM652.06 515.83L720.48 555.33L720.48 634.33L652.06 673.83L583.64 634.33L583.64 555.33zM583.64 634.33L652.06 673.83L652.06 752.83L583.64 792.33L515.23 752.83L515.23 673.83zM652.06 752.83L720.48 792.33L720.48 871.33L652.06 910.83L583.64 871.33L583.64 792.33zM652.06 989.83L720.48 1029.33L720.48 1108.33L652.06 1147.83L583.64 1108.33L583.64 1029.33zM788.9 41.83L857.32 81.33L857.32 160.33L788.9 199.83L720.48 160.33L720.48 81.33zM720.48 160.33L788.9 199.83L788.9 278.83L720.48 318.33L652.06 278.83L652.06 199.83zM788.9 515.83L857.32 555.33L857.32 634.33L788.9 673.83L720.48 634.33L720.48 555.33zM788.9 752.83L857.32 792.33L857.32 871.33L788.9 910.83L720.48 871.33L720.48 792.33zM857.32 160.33L925.73 199.83L925.73 278.83L857.32 318.33L788.9 278.83L788.9 199.83zM925.73 989.83L994.15 1029.33L994.15 1108.33L925.73 1147.83L857.32 1108.33L857.32 1029.33zM994.15 -76.67L1062.57 -37.17L1062.57 41.83L994.15 81.33L925.73 41.83L925.73 -37.17zM1062.57 41.83L1130.99 81.33L1130.99 160.33L1062.57 199.83L994.15 160.33L994.15 81.33zM994.15 397.33L1062.57 436.83L1062.57 515.83L994.15 555.33L925.73 515.83L925.73 436.83zM1062.57 752.83L1130.99 792.33L1130.99 871.33L1062.57 910.83L994.15 871.33L994.15 792.33zM994.15 871.33L1062.57 910.83L1062.57 989.83L994.15 1029.33L925.73 989.83L925.73 910.83zM1199.41 278.83L1267.82 318.33L1267.82 397.33L1199.41 436.83L1130.99 397.33L1130.99 318.33zM1130.99 634.33L1199.41 673.83L1199.41 752.83L1130.99 792.33L1062.57 752.83L1062.57 673.83zM1267.82 397.33L1336.24 436.83L1336.24 515.83L1267.82 555.33L1199.41 515.83L1199.41 436.83zM1336.24 515.83L1404.66 555.33L1404.66 634.33L1336.24 673.83L1267.82 634.33L1267.82 555.33zM1267.82 871.33L1336.24 910.83L1336.24 989.83L1267.82 1029.33L1199.41 989.83L1199.41 910.83zM1336.24 989.83L1404.66 1029.33L1404.66 1108.33L1336.24 1147.83L1267.82 1108.33L1267.82 1029.33zM1404.66 -76.67L1473.08 -37.17L1473.08 41.83L1404.66 81.33L1336.24 41.83L1336.24 -37.17zM1473.08 278.83L1541.49 318.33L1541.49 397.33L1473.08 436.83L1404.66 397.33L1404.66 318.33zM1404.66 397.33L1473.08 436.83L1473.08 515.83L1404.66 555.33L1336.24 515.83L1336.24 436.83zM1473.08 515.83L1541.49 555.33L1541.49 634.33L1473.08 673.83L1404.66 634.33L1404.66 555.33zM1609.91 41.83L1678.33 81.33L1678.33 160.33L1609.91 199.83L1541.49 160.33L1541.49 81.33zM1609.91 278.83L1678.33 318.33L1678.33 397.33L1609.91 436.83L1541.49 397.33L1541.49 318.33zM1541.49 397.33L1609.91 436.83L1609.91 515.83L1541.49 555.33L1473.08 515.83L1473.08 436.83zM1609.91 515.83L1678.33 555.33L1678.33 634.33L1609.91 673.83L1541.49 634.33L1541.49 555.33zM1678.33 160.33L1746.75 199.83L1746.75 278.83L1678.33 318.33L1609.91 278.83L1609.91 199.83zM1883.58 41.83L1952 81.33L1952 160.33L1883.58 199.83L1815.17 160.33L1815.17 81.33zM1815.17 160.33L1883.58 199.83L1883.58 278.83L1815.17 318.33L1746.75 278.83L1746.75 199.83zM1883.58 278.83L1952 318.33L1952 397.33L1883.58 436.83L1815.17 397.33L1815.17 318.33zM1952 160.33L2020.42 199.83L2020.42 278.83L1952 318.33L1883.58 278.83L1883.58 199.83z" stroke="rgba(8, 38, 69, 0.93)" stroke-width="2"></path></g><defs><mask id="SvgjsMask1201"><rect width="1920" height="1080" fill="#ffffff"></rect></mask></defs></svg>