<svg xmlns="http://www.w3.org/2000/svg" version="1.1" xmlns:xlink="http://www.w3.org/1999/xlink" xmlns:svgjs="http://svgjs.dev/svgjs" width="1440" height="560" preserveAspectRatio="none" viewBox="0 0 1440 560"><g mask="url(&quot;#SvgjsMask1453&quot;)" fill="none"><rect width="1440" height="560" x="0" y="0" fill="url(&quot;#SvgjsLinearGradient1454&quot;)"></rect><path d="M-108.09 397.38L-108.09 397.38" stroke="rgba(24, 26, 32, 1)" stroke-width="1.5"></path><path d="M-108.09 397.38L-67.05 536.31" stroke="rgba(24, 26, 32, 1)" stroke-width="1.5"></path><path d="M-108.09 397.38L71.04 385.46" stroke="rgba(24, 26, 32, 1)" stroke-width="1.5"></path><path d="M-108.09 397.38L70.73 500.1" stroke="rgba(24, 26, 32, 1)" stroke-width="1.5"></path><path d="M-67.05 536.31L-67.05 536.31" stroke="rgba(24, 26, 32, 1)" stroke-width="1.5"></path><path d="M-67.05 536.31L70.73 500.1" stroke="rgba(24, 26, 32, 1)" stroke-width="1.5"></path><path d="M-58.77 683.93L-58.77 683.93" stroke="rgba(24, 26, 32, 1)" stroke-width="1.5"></path><path d="M-58.77 683.93L74.82 661.62" stroke="rgba(24, 26, 32, 1)" stroke-width="1.5"></path><path d="M-58.77 683.93L-67.05 536.31" stroke="rgba(24, 26, 32, 1)" stroke-width="1.5"></path><path d="M-58.77 683.93L70.73 500.1" stroke="rgba(24, 26, 32, 1)" stroke-width="1.5"></path><path d="M-58.77 683.93L217.38 637.6" stroke="rgba(24, 26, 32, 1)" stroke-width="1.5"></path><path d="M-58.77 683.93L-108.09 397.38" stroke="rgba(24, 26, 32, 1)" stroke-width="1.5"></path><path d="M-58.77 683.93L196.1 528.18" stroke="rgba(24, 26, 32, 1)" stroke-width="1.5"></path><path d="M71.04 385.46L71.04 385.46" stroke="rgba(24, 26, 32, 1)" stroke-width="1.5"></path><path d="M71.04 385.46L70.73 500.1" stroke="rgba(24, 26, 32, 1)" stroke-width="1.5"></path><path d="M71.04 385.46L192.83 377.53" stroke="rgba(24, 26, 32, 1)" stroke-width="1.5"></path><path d="M71.04 385.46L196.1 528.18" stroke="rgba(24, 26, 32, 1)" stroke-width="1.5"></path><path d="M71.04 385.46L-67.05 536.31" stroke="rgba(24, 26, 32, 1)" stroke-width="1.5"></path><path d="M71.04 385.46L74.82 661.62" stroke="rgba(24, 26, 32, 1)" stroke-width="1.5"></path><path d="M70.73 500.1L70.73 500.1" stroke="rgba(24, 26, 32, 1)" stroke-width="1.5"></path><path d="M70.73 500.1L196.1 528.18" stroke="rgba(24, 26, 32, 1)" stroke-width="1.5"></path><path d="M74.82 661.62L74.82 661.62" stroke="rgba(24, 26, 32, 1)" stroke-width="1.5"></path><path d="M74.82 661.62L217.38 637.6" stroke="rgba(24, 26, 32, 1)" stroke-width="1.5"></path><path d="M74.82 661.62L70.73 500.1" stroke="rgba(24, 26, 32, 1)" stroke-width="1.5"></path><path d="M192.83 377.53L192.83 377.53" stroke="rgba(24, 26, 32, 1)" stroke-width="1.5"></path><path d="M192.83 377.53L196.1 528.18" stroke="rgba(24, 26, 32, 1)" stroke-width="1.5"></path><path d="M192.83 377.53L70.73 500.1" stroke="rgba(24, 26, 32, 1)" stroke-width="1.5"></path><path d="M196.1 528.18L196.1 528.18" stroke="rgba(24, 26, 32, 1)" stroke-width="1.5"></path><path d="M196.1 528.18L217.38 637.6" stroke="rgba(24, 26, 32, 1)" stroke-width="1.5"></path><path d="M196.1 528.18L74.82 661.62" stroke="rgba(24, 26, 32, 1)" stroke-width="1.5"></path><path d="M196.1 528.18L390.85 490.55" stroke="rgba(24, 26, 32, 1)" stroke-width="1.5"></path><path d="M217.38 637.6L217.38 637.6" stroke="rgba(24, 26, 32, 1)" stroke-width="1.5"></path><path d="M378.79 342.14L378.79 342.14" stroke="rgba(24, 26, 32, 1)" stroke-width="1.5"></path><path d="M378.79 342.14L514.71 374.63" stroke="rgba(24, 26, 32, 1)" stroke-width="1.5"></path><path d="M378.79 342.14L390.85 490.55" stroke="rgba(24, 26, 32, 1)" stroke-width="1.5"></path><path d="M390.85 490.55L390.85 490.55" stroke="rgba(24, 26, 32, 1)" stroke-width="1.5"></path><path d="M390.85 490.55L514.71 374.63" stroke="rgba(24, 26, 32, 1)" stroke-width="1.5"></path><path d="M390.85 490.55L558.23 550.76" stroke="rgba(24, 26, 32, 1)" stroke-width="1.5"></path><path d="M514.71 374.63L514.71 374.63" stroke="rgba(24, 26, 32, 1)" stroke-width="1.5"></path><path d="M514.71 374.63L558.23 550.76" stroke="rgba(24, 26, 32, 1)" stroke-width="1.5"></path><path d="M514.71 374.63L698.33 214.3" stroke="rgba(24, 26, 32, 1)" stroke-width="1.5"></path><path d="M558.23 550.76L558.23 550.76" stroke="rgba(24, 26, 32, 1)" stroke-width="1.5"></path><path d="M558.23 550.76L679.61 562.44" stroke="rgba(24, 26, 32, 1)" stroke-width="1.5"></path><path d="M558.23 550.76L487.6 684.29" stroke="rgba(24, 26, 32, 1)" stroke-width="1.5"></path><path d="M558.23 550.76L686.17 678.04" stroke="rgba(24, 26, 32, 1)" stroke-width="1.5"></path><path d="M487.6 684.29L487.6 684.29" stroke="rgba(24, 26, 32, 1)" stroke-width="1.5"></path><path d="M487.6 684.29L686.17 678.04" stroke="rgba(24, 26, 32, 1)" stroke-width="1.5"></path><path d="M487.6 684.29L390.85 490.55" stroke="rgba(24, 26, 32, 1)" stroke-width="1.5"></path><path d="M487.6 684.29L679.61 562.44" stroke="rgba(24, 26, 32, 1)" stroke-width="1.5"></path><path d="M487.6 684.29L217.38 637.6" stroke="rgba(24, 26, 32, 1)" stroke-width="1.5"></path><path d="M487.6 684.29L514.71 374.63" stroke="rgba(24, 26, 32, 1)" stroke-width="1.5"></path><path d="M698.33 214.3L698.33 214.3" stroke="rgba(24, 26, 32, 1)" stroke-width="1.5"></path><path d="M698.33 214.3L816.84 252.13" stroke="rgba(24, 26, 32, 1)" stroke-width="1.5"></path><path d="M698.33 214.3L815.85 372.1" stroke="rgba(24, 26, 32, 1)" stroke-width="1.5"></path><path d="M698.33 214.3L967.67 187.97" stroke="rgba(24, 26, 32, 1)" stroke-width="1.5"></path><path d="M698.33 214.3L968.21 341.71" stroke="rgba(24, 26, 32, 1)" stroke-width="1.5"></path><path d="M679.61 562.44L679.61 562.44" stroke="rgba(24, 26, 32, 1)" stroke-width="1.5"></path><path d="M679.61 562.44L686.17 678.04" stroke="rgba(24, 26, 32, 1)" stroke-width="1.5"></path><path d="M686.17 678.04L686.17 678.04" stroke="rgba(24, 26, 32, 1)" stroke-width="1.5"></path><path d="M686.17 678.04L813.22 655.54" stroke="rgba(24, 26, 32, 1)" stroke-width="1.5"></path><path d="M816.84 252.13L816.84 252.13" stroke="rgba(24, 26, 32, 1)" stroke-width="1.5"></path><path d="M816.84 252.13L815.85 372.1" stroke="rgba(24, 26, 32, 1)" stroke-width="1.5"></path><path d="M816.84 252.13L967.67 187.97" stroke="rgba(24, 26, 32, 1)" stroke-width="1.5"></path><path d="M815.85 372.1L815.85 372.1" stroke="rgba(24, 26, 32, 1)" stroke-width="1.5"></path><path d="M815.85 372.1L828.98 521.07" stroke="rgba(24, 26, 32, 1)" stroke-width="1.5"></path><path d="M815.85 372.1L968.21 341.71" stroke="rgba(24, 26, 32, 1)" stroke-width="1.5"></path><path d="M815.85 372.1L989.1 527.77" stroke="rgba(24, 26, 32, 1)" stroke-width="1.5"></path><path d="M815.85 372.1L679.61 562.44" stroke="rgba(24, 26, 32, 1)" stroke-width="1.5"></path><path d="M828.98 521.07L828.98 521.07" stroke="rgba(24, 26, 32, 1)" stroke-width="1.5"></path><path d="M828.98 521.07L813.22 655.54" stroke="rgba(24, 26, 32, 1)" stroke-width="1.5"></path><path d="M828.98 521.07L679.61 562.44" stroke="rgba(24, 26, 32, 1)" stroke-width="1.5"></path><path d="M828.98 521.07L989.1 527.77" stroke="rgba(24, 26, 32, 1)" stroke-width="1.5"></path><path d="M828.98 521.07L998.48 638.65" stroke="rgba(24, 26, 32, 1)" stroke-width="1.5"></path><path d="M813.22 655.54L813.22 655.54" stroke="rgba(24, 26, 32, 1)" stroke-width="1.5"></path><path d="M977.76 -52.1L977.76 -52.1" stroke="rgba(24, 26, 32, 1)" stroke-width="1.5"></path><path d="M977.76 -52.1L970.9 71.59" stroke="rgba(24, 26, 32, 1)" stroke-width="1.5"></path><path d="M977.76 -52.1L1114.74 -52.06" stroke="rgba(24, 26, 32, 1)" stroke-width="1.5"></path><path d="M977.76 -52.1L1157.74 103.6" stroke="rgba(24, 26, 32, 1)" stroke-width="1.5"></path><path d="M977.76 -52.1L967.67 187.97" stroke="rgba(24, 26, 32, 1)" stroke-width="1.5"></path><path d="M977.76 -52.1L1242.36 -40.26" stroke="rgba(24, 26, 32, 1)" stroke-width="1.5"></path><path d="M977.76 -52.1L1287.6 42.17" stroke="rgba(24, 26, 32, 1)" stroke-width="1.5"></path><path d="M970.9 71.59L970.9 71.59" stroke="rgba(24, 26, 32, 1)" stroke-width="1.5"></path><path d="M970.9 71.59L967.67 187.97" stroke="rgba(24, 26, 32, 1)" stroke-width="1.5"></path><path d="M967.67 187.97L967.67 187.97" stroke="rgba(24, 26, 32, 1)" stroke-width="1.5"></path><path d="M967.67 187.97L968.21 341.71" stroke="rgba(24, 26, 32, 1)" stroke-width="1.5"></path><path d="M968.21 341.71L968.21 341.71" stroke="rgba(24, 26, 32, 1)" stroke-width="1.5"></path><path d="M968.21 341.71L1122.42 412.08" stroke="rgba(24, 26, 32, 1)" stroke-width="1.5"></path><path d="M968.21 341.71L816.84 252.13" stroke="rgba(24, 26, 32, 1)" stroke-width="1.5"></path><path d="M968.21 341.71L989.1 527.77" stroke="rgba(24, 26, 32, 1)" stroke-width="1.5"></path><path d="M968.21 341.71L1104.8 513.84" stroke="rgba(24, 26, 32, 1)" stroke-width="1.5"></path><path d="M989.1 527.77L989.1 527.77" stroke="rgba(24, 26, 32, 1)" stroke-width="1.5"></path><path d="M989.1 527.77L998.48 638.65" stroke="rgba(24, 26, 32, 1)" stroke-width="1.5"></path><path d="M989.1 527.77L1104.8 513.84" stroke="rgba(24, 26, 32, 1)" stroke-width="1.5"></path><path d="M989.1 527.77L1122.42 412.08" stroke="rgba(24, 26, 32, 1)" stroke-width="1.5"></path><path d="M998.48 638.65L998.48 638.65" stroke="rgba(24, 26, 32, 1)" stroke-width="1.5"></path><path d="M998.48 638.65L1125.94 653.84" stroke="rgba(24, 26, 32, 1)" stroke-width="1.5"></path><path d="M998.48 638.65L1104.8 513.84" stroke="rgba(24, 26, 32, 1)" stroke-width="1.5"></path><path d="M998.48 638.65L813.22 655.54" stroke="rgba(24, 26, 32, 1)" stroke-width="1.5"></path><path d="M1114.74 -52.06L1114.74 -52.06" stroke="rgba(24, 26, 32, 1)" stroke-width="1.5"></path><path d="M1114.74 -52.06L1242.36 -40.26" stroke="rgba(24, 26, 32, 1)" stroke-width="1.5"></path><path d="M1114.74 -52.06L1157.74 103.6" stroke="rgba(24, 26, 32, 1)" stroke-width="1.5"></path><path d="M1114.74 -52.06L970.9 71.59" stroke="rgba(24, 26, 32, 1)" stroke-width="1.5"></path><path d="M1157.74 103.6L1157.74 103.6" stroke="rgba(24, 26, 32, 1)" stroke-width="1.5"></path><path d="M1157.74 103.6L1155.3 224.1" stroke="rgba(24, 26, 32, 1)" stroke-width="1.5"></path><path d="M1157.74 103.6L1287.6 42.17" stroke="rgba(24, 26, 32, 1)" stroke-width="1.5"></path><path d="M1155.3 224.1L1155.3 224.1" stroke="rgba(24, 26, 32, 1)" stroke-width="1.5"></path><path d="M1155.3 224.1L1295.86 211.57" stroke="rgba(24, 26, 32, 1)" stroke-width="1.5"></path><path d="M1122.42 412.08L1122.42 412.08" stroke="rgba(24, 26, 32, 1)" stroke-width="1.5"></path><path d="M1122.42 412.08L1104.8 513.84" stroke="rgba(24, 26, 32, 1)" stroke-width="1.5"></path><path d="M1122.42 412.08L1262.04 491.54" stroke="rgba(24, 26, 32, 1)" stroke-width="1.5"></path><path d="M1104.8 513.84L1104.8 513.84" stroke="rgba(24, 26, 32, 1)" stroke-width="1.5"></path><path d="M1125.94 653.84L1125.94 653.84" stroke="rgba(24, 26, 32, 1)" stroke-width="1.5"></path><path d="M1125.94 653.84L1238.84 665.75" stroke="rgba(24, 26, 32, 1)" stroke-width="1.5"></path><path d="M1125.94 653.84L1104.8 513.84" stroke="rgba(24, 26, 32, 1)" stroke-width="1.5"></path><path d="M1125.94 653.84L989.1 527.77" stroke="rgba(24, 26, 32, 1)" stroke-width="1.5"></path><path d="M1125.94 653.84L1262.04 491.54" stroke="rgba(24, 26, 32, 1)" stroke-width="1.5"></path><path d="M1125.94 653.84L1122.42 412.08" stroke="rgba(24, 26, 32, 1)" stroke-width="1.5"></path><path d="M1242.36 -40.26L1242.36 -40.26" stroke="rgba(24, 26, 32, 1)" stroke-width="1.5"></path><path d="M1242.36 -40.26L1287.6 42.17" stroke="rgba(24, 26, 32, 1)" stroke-width="1.5"></path><path d="M1287.6 42.17L1287.6 42.17" stroke="rgba(24, 26, 32, 1)" stroke-width="1.5"></path><path d="M1287.6 42.17L1295.86 211.57" stroke="rgba(24, 26, 32, 1)" stroke-width="1.5"></path><path d="M1287.6 42.17L1436.24 -86.92" stroke="rgba(24, 26, 32, 1)" stroke-width="1.5"></path><path d="M1287.6 42.17L1114.74 -52.06" stroke="rgba(24, 26, 32, 1)" stroke-width="1.5"></path><path d="M1295.86 211.57L1295.86 211.57" stroke="rgba(24, 26, 32, 1)" stroke-width="1.5"></path><path d="M1295.86 211.57L1390.14 218.69" stroke="rgba(24, 26, 32, 1)" stroke-width="1.5"></path><path d="M1308.99 349.82L1308.99 349.82" stroke="rgba(24, 26, 32, 1)" stroke-width="1.5"></path><path d="M1308.99 349.82L1295.86 211.57" stroke="rgba(24, 26, 32, 1)" stroke-width="1.5"></path><path d="M1308.99 349.82L1262.04 491.54" stroke="rgba(24, 26, 32, 1)" stroke-width="1.5"></path><path d="M1308.99 349.82L1390.14 218.69" stroke="rgba(24, 26, 32, 1)" stroke-width="1.5"></path><path d="M1308.99 349.82L1122.42 412.08" stroke="rgba(24, 26, 32, 1)" stroke-width="1.5"></path><path d="M1262.04 491.54L1262.04 491.54" stroke="rgba(24, 26, 32, 1)" stroke-width="1.5"></path><path d="M1262.04 491.54L1104.8 513.84" stroke="rgba(24, 26, 32, 1)" stroke-width="1.5"></path><path d="M1238.84 665.75L1238.84 665.75" stroke="rgba(24, 26, 32, 1)" stroke-width="1.5"></path><path d="M1238.84 665.75L1262.04 491.54" stroke="rgba(24, 26, 32, 1)" stroke-width="1.5"></path><path d="M1238.84 665.75L1104.8 513.84" stroke="rgba(24, 26, 32, 1)" stroke-width="1.5"></path><path d="M1238.84 665.75L1455.02 689.86" stroke="rgba(24, 26, 32, 1)" stroke-width="1.5"></path><path d="M1238.84 665.75L998.48 638.65" stroke="rgba(24, 26, 32, 1)" stroke-width="1.5"></path><path d="M1238.84 665.75L1444.66 512.97" stroke="rgba(24, 26, 32, 1)" stroke-width="1.5"></path><path d="M1436.24 -86.92L1436.24 -86.92" stroke="rgba(24, 26, 32, 1)" stroke-width="1.5"></path><path d="M1436.24 -86.92L1553.08 -73.39" stroke="rgba(24, 26, 32, 1)" stroke-width="1.5"></path><path d="M1390.14 218.69L1390.14 218.69" stroke="rgba(24, 26, 32, 1)" stroke-width="1.5"></path><path d="M1390.14 218.69L1287.6 42.17" stroke="rgba(24, 26, 32, 1)" stroke-width="1.5"></path><path d="M1390.14 218.69L1595.92 220.24" stroke="rgba(24, 26, 32, 1)" stroke-width="1.5"></path><path d="M1390.14 218.69L1155.3 224.1" stroke="rgba(24, 26, 32, 1)" stroke-width="1.5"></path><path d="M1444.66 512.97L1444.66 512.97" stroke="rgba(24, 26, 32, 1)" stroke-width="1.5"></path><path d="M1444.66 512.97L1455.02 689.86" stroke="rgba(24, 26, 32, 1)" stroke-width="1.5"></path><path d="M1444.66 512.97L1262.04 491.54" stroke="rgba(24, 26, 32, 1)" stroke-width="1.5"></path><path d="M1455.02 689.86L1455.02 689.86" stroke="rgba(24, 26, 32, 1)" stroke-width="1.5"></path><path d="M1455.02 689.86L1579.87 660.31" stroke="rgba(24, 26, 32, 1)" stroke-width="1.5"></path><path d="M1455.02 689.86L1262.04 491.54" stroke="rgba(24, 26, 32, 1)" stroke-width="1.5"></path><path d="M1455.02 689.86L1125.94 653.84" stroke="rgba(24, 26, 32, 1)" stroke-width="1.5"></path><path d="M1553.08 -73.39L1553.08 -73.39" stroke="rgba(24, 26, 32, 1)" stroke-width="1.5"></path><path d="M1553.08 -73.39L1287.6 42.17" stroke="rgba(24, 26, 32, 1)" stroke-width="1.5"></path><path d="M1553.08 -73.39L1595.92 220.24" stroke="rgba(24, 26, 32, 1)" stroke-width="1.5"></path><path d="M1553.08 -73.39L1242.36 -40.26" stroke="rgba(24, 26, 32, 1)" stroke-width="1.5"></path><path d="M1595.92 220.24L1595.92 220.24" stroke="rgba(24, 26, 32, 1)" stroke-width="1.5"></path><path d="M1579.87 660.31L1579.87 660.31" stroke="rgba(24, 26, 32, 1)" stroke-width="1.5"></path><path d="M1579.87 660.31L1444.66 512.97" stroke="rgba(24, 26, 32, 1)" stroke-width="1.5"></path><path d="M1579.87 660.31L1238.84 665.75" stroke="rgba(24, 26, 32, 1)" stroke-width="1.5"></path><path d="M1579.87 660.31L1262.04 491.54" stroke="rgba(24, 26, 32, 1)" stroke-width="1.5"></path><circle r="5" cx="-108.09" cy="397.38" fill="rgba(24, 26, 32, 1)"></circle><circle r="5" cx="-67.05" cy="536.31" fill="rgba(24, 26, 32, 1)"></circle><circle r="5" cx="-58.77" cy="683.93" fill="rgba(24, 26, 32, 1)"></circle><circle r="5" cx="71.04" cy="385.46" fill="rgba(24, 26, 32, 1)"></circle><circle r="5" cx="70.73" cy="500.1" fill="rgba(24, 26, 32, 1)"></circle><circle r="5" cx="74.82" cy="661.62" fill="rgba(24, 26, 32, 1)"></circle><circle r="5" cx="192.83" cy="377.53" fill="rgba(24, 26, 32, 1)"></circle><circle r="5" cx="196.1" cy="528.18" fill="rgba(24, 26, 32, 1)"></circle><circle r="5" cx="217.38" cy="637.6" fill="rgba(24, 26, 32, 1)"></circle><circle r="5" cx="378.79" cy="342.14" fill="rgba(24, 26, 32, 1)"></circle><circle r="5" cx="390.85" cy="490.55" fill="rgba(24, 26, 32, 1)"></circle><circle r="5" cx="514.71" cy="374.63" fill="rgba(24, 26, 32, 1)"></circle><circle r="5" cx="558.23" cy="550.76" fill="rgba(24, 26, 32, 1)"></circle><circle r="5" cx="487.6" cy="684.29" fill="rgba(24, 26, 32, 1)"></circle><circle r="5" cx="698.33" cy="214.3" fill="rgba(24, 26, 32, 1)"></circle><circle r="5" cx="679.61" cy="562.44" fill="rgba(24, 26, 32, 1)"></circle><circle r="5" cx="686.17" cy="678.04" fill="rgba(24, 26, 32, 1)"></circle><circle r="5" cx="816.84" cy="252.13" fill="rgba(24, 26, 32, 1)"></circle><circle r="5" cx="815.85" cy="372.1" fill="rgba(24, 26, 32, 1)"></circle><circle r="5" cx="828.98" cy="521.07" fill="rgba(24, 26, 32, 1)"></circle><circle r="5" cx="813.22" cy="655.54" fill="rgba(24, 26, 32, 1)"></circle><circle r="5" cx="977.76" cy="-52.1" fill="rgba(24, 26, 32, 1)"></circle><circle r="5" cx="970.9" cy="71.59" fill="rgba(24, 26, 32, 1)"></circle><circle r="5" cx="967.67" cy="187.97" fill="rgba(24, 26, 32, 1)"></circle><circle r="5" cx="968.21" cy="341.71" fill="rgba(24, 26, 32, 1)"></circle><circle r="5" cx="989.1" cy="527.77" fill="rgba(24, 26, 32, 1)"></circle><circle r="5" cx="998.48" cy="638.65" fill="rgba(24, 26, 32, 1)"></circle><circle r="5" cx="1114.74" cy="-52.06" fill="rgba(24, 26, 32, 1)"></circle><circle r="5" cx="1157.74" cy="103.6" fill="rgba(24, 26, 32, 1)"></circle><circle r="5" cx="1155.3" cy="224.1" fill="rgba(24, 26, 32, 1)"></circle><circle r="5" cx="1122.42" cy="412.08" fill="rgba(24, 26, 32, 1)"></circle><circle r="5" cx="1104.8" cy="513.84" fill="rgba(24, 26, 32, 1)"></circle><circle r="5" cx="1125.94" cy="653.84" fill="rgba(24, 26, 32, 1)"></circle><circle r="5" cx="1242.36" cy="-40.26" fill="rgba(24, 26, 32, 1)"></circle><circle r="5" cx="1287.6" cy="42.17" fill="rgba(24, 26, 32, 1)"></circle><circle r="5" cx="1295.86" cy="211.57" fill="rgba(24, 26, 32, 1)"></circle><circle r="5" cx="1308.99" cy="349.82" fill="rgba(24, 26, 32, 1)"></circle><circle r="5" cx="1262.04" cy="491.54" fill="rgba(24, 26, 32, 1)"></circle><circle r="5" cx="1238.84" cy="665.75" fill="rgba(24, 26, 32, 1)"></circle><circle r="5" cx="1436.24" cy="-86.92" fill="rgba(24, 26, 32, 1)"></circle><circle r="5" cx="1390.14" cy="218.69" fill="rgba(24, 26, 32, 1)"></circle><circle r="5" cx="1444.66" cy="512.97" fill="rgba(24, 26, 32, 1)"></circle><circle r="5" cx="1455.02" cy="689.86" fill="rgba(24, 26, 32, 1)"></circle><circle r="5" cx="1553.08" cy="-73.39" fill="rgba(24, 26, 32, 1)"></circle><circle r="5" cx="1595.92" cy="220.24" fill="rgba(24, 26, 32, 1)"></circle><circle r="5" cx="1579.87" cy="660.31" fill="rgba(24, 26, 32, 1)"></circle><path d="M43.54 530.39L43.54 530.39" stroke="hsl(228.5, 77.2%, 51.5%)" stroke-width="1.5"></path><path d="M43.54 530.39L199.52 550.09" stroke="hsl(228.5, 77.2%, 51.5%)" stroke-width="1.5"></path><path d="M43.54 530.39L-86.31 706.09" stroke="hsl(228.5, 77.2%, 51.5%)" stroke-width="1.5"></path><path d="M43.54 530.39L187.57 704.74" stroke="hsl(228.5, 77.2%, 51.5%)" stroke-width="1.5"></path><path d="M43.54 530.39L349.7 559.51" stroke="hsl(228.5, 77.2%, 51.5%)" stroke-width="1.5"></path><path d="M43.54 530.39L410.79 689.84" stroke="hsl(228.5, 77.2%, 51.5%)" stroke-width="1.5"></path><path d="M43.54 530.39L543.58 493.12" stroke="hsl(228.5, 77.2%, 51.5%)" stroke-width="1.5"></path><path d="M658.18 517.01L658.18 517.01" stroke="hsl(228.5, 77.2%, 51.5%)" stroke-width="1.5"></path><path d="M658.18 517.01L659.29 408.94" stroke="hsl(228.5, 77.2%, 51.5%)" stroke-width="1.5"></path><path d="M658.18 517.01L543.58 493.12" stroke="hsl(228.5, 77.2%, 51.5%)" stroke-width="1.5"></path><path d="M658.18 517.01L683.04 644.84" stroke="hsl(228.5, 77.2%, 51.5%)" stroke-width="1.5"></path><path d="M1132.08 410.41L1132.08 410.41" stroke="hsl(228.5, 77.2%, 51.5%)" stroke-width="1.5"></path><path d="M1132.08 410.41L1255.06 379.09" stroke="hsl(228.5, 77.2%, 51.5%)" stroke-width="1.5"></path><path d="M1132.08 410.41L1007.33 490.74" stroke="hsl(228.5, 77.2%, 51.5%)" stroke-width="1.5"></path><path d="M1132.08 410.41L951.79 350.53" stroke="hsl(228.5, 77.2%, 51.5%)" stroke-width="1.5"></path><path d="M1305.79 67.73L1305.79 67.73" stroke="hsl(228.5, 77.2%, 51.5%)" stroke-width="1.5"></path><path d="M1305.79 67.73L1396.65 86.55" stroke="hsl(228.5, 77.2%, 51.5%)" stroke-width="1.5"></path><path d="M1305.79 67.73L1306.36 -70.54" stroke="hsl(228.5, 77.2%, 51.5%)" stroke-width="1.5"></path><path d="M1305.79 67.73L1302.84 206.17" stroke="hsl(228.5, 77.2%, 51.5%)" stroke-width="1.5"></path><path d="M1305.79 67.73L1414.89 224.06" stroke="hsl(228.5, 77.2%, 51.5%)" stroke-width="1.5"></path><path d="M1270.78 656.96L1270.78 656.96" stroke="hsl(228.5, 77.2%, 51.5%)" stroke-width="1.5"></path><path d="M1270.78 656.96L1278.6 532.15" stroke="hsl(228.5, 77.2%, 51.5%)" stroke-width="1.5"></path><path d="M1270.78 656.96L1427.9 676.79" stroke="hsl(228.5, 77.2%, 51.5%)" stroke-width="1.5"></path><path d="M1270.78 656.96L1094.35 687.1" stroke="hsl(228.5, 77.2%, 51.5%)" stroke-width="1.5"></path><path d="M1270.78 656.96L1451.59 523.13" stroke="hsl(228.5, 77.2%, 51.5%)" stroke-width="1.5"></path><path d="M1396.65 86.55L1396.65 86.55" stroke="hsl(228.5, 77.2%, 51.5%)" stroke-width="1.5"></path><path d="M1396.65 86.55L1414.89 224.06" stroke="hsl(228.5, 77.2%, 51.5%)" stroke-width="1.5"></path><path d="M1396.65 86.55L1302.84 206.17" stroke="hsl(228.5, 77.2%, 51.5%)" stroke-width="1.5"></path><path d="M1396.65 86.55L1422.97 -85.06" stroke="hsl(228.5, 77.2%, 51.5%)" stroke-width="1.5"></path><path d="M1405.02 390.13L1405.02 390.13" stroke="hsl(228.5, 77.2%, 51.5%)" stroke-width="1.5"></path><path d="M1405.02 390.13L1451.59 523.13" stroke="hsl(228.5, 77.2%, 51.5%)" stroke-width="1.5"></path><path d="M1405.02 390.13L1550.38 401.63" stroke="hsl(228.5, 77.2%, 51.5%)" stroke-width="1.5"></path><path d="M1405.02 390.13L1255.06 379.09" stroke="hsl(228.5, 77.2%, 51.5%)" stroke-width="1.5"></path><path d="M1405.02 390.13L1414.89 224.06" stroke="hsl(228.5, 77.2%, 51.5%)" stroke-width="1.5"></path><path d="M1405.02 390.13L1278.6 532.15" stroke="hsl(228.5, 77.2%, 51.5%)" stroke-width="1.5"></path><path d="M1405.02 390.13L1302.84 206.17" stroke="hsl(228.5, 77.2%, 51.5%)" stroke-width="1.5"></path><path d="M1427.9 676.79L1427.9 676.79" stroke="hsl(228.5, 77.2%, 51.5%)" stroke-width="1.5"></path><path d="M1427.9 676.79L1577.34 646.32" stroke="hsl(228.5, 77.2%, 51.5%)" stroke-width="1.5"></path><path d="M1427.9 676.79L1451.59 523.13" stroke="hsl(228.5, 77.2%, 51.5%)" stroke-width="1.5"></path><path d="M1603.79 203.46L1603.79 203.46" stroke="hsl(228.5, 77.2%, 51.5%)" stroke-width="1.5"></path><path d="M1603.79 203.46L1581.85 42.02" stroke="hsl(228.5, 77.2%, 51.5%)" stroke-width="1.5"></path><path d="M1603.79 203.46L1414.89 224.06" stroke="hsl(228.5, 77.2%, 51.5%)" stroke-width="1.5"></path><path d="M1603.79 203.46L1550.38 401.63" stroke="hsl(228.5, 77.2%, 51.5%)" stroke-width="1.5"></path><path d="M1603.79 203.46L1396.65 86.55" stroke="hsl(228.5, 77.2%, 51.5%)" stroke-width="1.5"></path><path d="M1602.2 544.5L1602.2 544.5" stroke="hsl(228.5, 77.2%, 51.5%)" stroke-width="1.5"></path><path d="M1602.2 544.5L1577.34 646.32" stroke="hsl(228.5, 77.2%, 51.5%)" stroke-width="1.5"></path><path d="M1602.2 544.5L1550.38 401.63" stroke="hsl(228.5, 77.2%, 51.5%)" stroke-width="1.5"></path><path d="M1602.2 544.5L1451.59 523.13" stroke="hsl(228.5, 77.2%, 51.5%)" stroke-width="1.5"></path><path d="M1602.2 544.5L1427.9 676.79" stroke="hsl(228.5, 77.2%, 51.5%)" stroke-width="1.5"></path><path d="M-86.31 706.09L-86.31 706.09" stroke="hsl(228.5, 77.2%, 51.5%)" stroke-width="1.5"></path><path d="M-86.31 706.09L187.57 704.74" stroke="hsl(228.5, 77.2%, 51.5%)" stroke-width="1.5"></path><path d="M-86.31 706.09L199.52 550.09" stroke="hsl(228.5, 77.2%, 51.5%)" stroke-width="1.5"></path><path d="M-86.31 706.09L349.7 559.51" stroke="hsl(228.5, 77.2%, 51.5%)" stroke-width="1.5"></path><path d="M-86.31 706.09L410.79 689.84" stroke="hsl(228.5, 77.2%, 51.5%)" stroke-width="1.5"></path><path d="M199.52 550.09L199.52 550.09" stroke="hsl(228.5, 77.2%, 51.5%)" stroke-width="1.5"></path><path d="M199.52 550.09L349.7 559.51" stroke="hsl(228.5, 77.2%, 51.5%)" stroke-width="1.5"></path><path d="M199.52 550.09L187.57 704.74" stroke="hsl(228.5, 77.2%, 51.5%)" stroke-width="1.5"></path><path d="M199.52 550.09L410.79 689.84" stroke="hsl(228.5, 77.2%, 51.5%)" stroke-width="1.5"></path><path d="M187.57 704.74L187.57 704.74" stroke="hsl(228.5, 77.2%, 51.5%)" stroke-width="1.5"></path><path d="M187.57 704.74L349.7 559.51" stroke="hsl(228.5, 77.2%, 51.5%)" stroke-width="1.5"></path><path d="M349.7 559.51L349.7 559.51" stroke="hsl(228.5, 77.2%, 51.5%)" stroke-width="1.5"></path><path d="M349.7 559.51L410.79 689.84" stroke="hsl(228.5, 77.2%, 51.5%)" stroke-width="1.5"></path><path d="M410.79 689.84L410.79 689.84" stroke="hsl(228.5, 77.2%, 51.5%)" stroke-width="1.5"></path><path d="M410.79 689.84L187.57 704.74" stroke="hsl(228.5, 77.2%, 51.5%)" stroke-width="1.5"></path><path d="M410.79 689.84L543.58 493.12" stroke="hsl(228.5, 77.2%, 51.5%)" stroke-width="1.5"></path><path d="M543.58 493.12L543.58 493.12" stroke="hsl(228.5, 77.2%, 51.5%)" stroke-width="1.5"></path><path d="M543.58 493.12L659.29 408.94" stroke="hsl(228.5, 77.2%, 51.5%)" stroke-width="1.5"></path><path d="M543.58 493.12L349.7 559.51" stroke="hsl(228.5, 77.2%, 51.5%)" stroke-width="1.5"></path><path d="M543.58 493.12L683.04 644.84" stroke="hsl(228.5, 77.2%, 51.5%)" stroke-width="1.5"></path><path d="M659.29 408.94L659.29 408.94" stroke="hsl(228.5, 77.2%, 51.5%)" stroke-width="1.5"></path><path d="M659.29 408.94L795.78 525.84" stroke="hsl(228.5, 77.2%, 51.5%)" stroke-width="1.5"></path><path d="M659.29 408.94L851.57 406.44" stroke="hsl(228.5, 77.2%, 51.5%)" stroke-width="1.5"></path><path d="M659.29 408.94L683.04 644.84" stroke="hsl(228.5, 77.2%, 51.5%)" stroke-width="1.5"></path><path d="M659.29 408.94L813.95 651.18" stroke="hsl(228.5, 77.2%, 51.5%)" stroke-width="1.5"></path><path d="M683.04 644.84L683.04 644.84" stroke="hsl(228.5, 77.2%, 51.5%)" stroke-width="1.5"></path><path d="M683.04 644.84L813.95 651.18" stroke="hsl(228.5, 77.2%, 51.5%)" stroke-width="1.5"></path><path d="M851.57 406.44L851.57 406.44" stroke="hsl(228.5, 77.2%, 51.5%)" stroke-width="1.5"></path><path d="M851.57 406.44L951.79 350.53" stroke="hsl(228.5, 77.2%, 51.5%)" stroke-width="1.5"></path><path d="M851.57 406.44L795.78 525.84" stroke="hsl(228.5, 77.2%, 51.5%)" stroke-width="1.5"></path><path d="M851.57 406.44L1007.33 490.74" stroke="hsl(228.5, 77.2%, 51.5%)" stroke-width="1.5"></path><path d="M795.78 525.84L795.78 525.84" stroke="hsl(228.5, 77.2%, 51.5%)" stroke-width="1.5"></path><path d="M795.78 525.84L813.95 651.18" stroke="hsl(228.5, 77.2%, 51.5%)" stroke-width="1.5"></path><path d="M795.78 525.84L658.18 517.01" stroke="hsl(228.5, 77.2%, 51.5%)" stroke-width="1.5"></path><path d="M795.78 525.84L683.04 644.84" stroke="hsl(228.5, 77.2%, 51.5%)" stroke-width="1.5"></path><path d="M813.95 651.18L813.95 651.18" stroke="hsl(228.5, 77.2%, 51.5%)" stroke-width="1.5"></path><path d="M813.95 651.18L981.3 692.5" stroke="hsl(228.5, 77.2%, 51.5%)" stroke-width="1.5"></path><path d="M951.79 350.53L951.79 350.53" stroke="hsl(228.5, 77.2%, 51.5%)" stroke-width="1.5"></path><path d="M951.79 350.53L1007.33 490.74" stroke="hsl(228.5, 77.2%, 51.5%)" stroke-width="1.5"></path><path d="M951.79 350.53L795.78 525.84" stroke="hsl(228.5, 77.2%, 51.5%)" stroke-width="1.5"></path><path d="M1007.33 490.74L1007.33 490.74" stroke="hsl(228.5, 77.2%, 51.5%)" stroke-width="1.5"></path><path d="M1007.33 490.74L981.3 692.5" stroke="hsl(228.5, 77.2%, 51.5%)" stroke-width="1.5"></path><path d="M1007.33 490.74L795.78 525.84" stroke="hsl(228.5, 77.2%, 51.5%)" stroke-width="1.5"></path><path d="M981.3 692.5L981.3 692.5" stroke="hsl(228.5, 77.2%, 51.5%)" stroke-width="1.5"></path><path d="M981.3 692.5L1094.35 687.1" stroke="hsl(228.5, 77.2%, 51.5%)" stroke-width="1.5"></path><path d="M981.3 692.5L795.78 525.84" stroke="hsl(228.5, 77.2%, 51.5%)" stroke-width="1.5"></path><path d="M1128.03 187.69L1128.03 187.69" stroke="hsl(228.5, 77.2%, 51.5%)" stroke-width="1.5"></path><path d="M1128.03 187.69L1302.84 206.17" stroke="hsl(228.5, 77.2%, 51.5%)" stroke-width="1.5"></path><path d="M1128.03 187.69L1305.79 67.73" stroke="hsl(228.5, 77.2%, 51.5%)" stroke-width="1.5"></path><path d="M1128.03 187.69L1132.08 410.41" stroke="hsl(228.5, 77.2%, 51.5%)" stroke-width="1.5"></path><path d="M1128.03 187.69L1255.06 379.09" stroke="hsl(228.5, 77.2%, 51.5%)" stroke-width="1.5"></path><path d="M1128.03 187.69L951.79 350.53" stroke="hsl(228.5, 77.2%, 51.5%)" stroke-width="1.5"></path><path d="M1094.35 687.1L1094.35 687.1" stroke="hsl(228.5, 77.2%, 51.5%)" stroke-width="1.5"></path><path d="M1094.35 687.1L1007.33 490.74" stroke="hsl(228.5, 77.2%, 51.5%)" stroke-width="1.5"></path><path d="M1094.35 687.1L1278.6 532.15" stroke="hsl(228.5, 77.2%, 51.5%)" stroke-width="1.5"></path><path d="M1306.36 -70.54L1306.36 -70.54" stroke="hsl(228.5, 77.2%, 51.5%)" stroke-width="1.5"></path><path d="M1306.36 -70.54L1422.97 -85.06" stroke="hsl(228.5, 77.2%, 51.5%)" stroke-width="1.5"></path><path d="M1302.84 206.17L1302.84 206.17" stroke="hsl(228.5, 77.2%, 51.5%)" stroke-width="1.5"></path><path d="M1302.84 206.17L1414.89 224.06" stroke="hsl(228.5, 77.2%, 51.5%)" stroke-width="1.5"></path><path d="M1302.84 206.17L1255.06 379.09" stroke="hsl(228.5, 77.2%, 51.5%)" stroke-width="1.5"></path><path d="M1255.06 379.09L1255.06 379.09" stroke="hsl(228.5, 77.2%, 51.5%)" stroke-width="1.5"></path><path d="M1255.06 379.09L1278.6 532.15" stroke="hsl(228.5, 77.2%, 51.5%)" stroke-width="1.5"></path><path d="M1278.6 532.15L1278.6 532.15" stroke="hsl(228.5, 77.2%, 51.5%)" stroke-width="1.5"></path><path d="M1278.6 532.15L1451.59 523.13" stroke="hsl(228.5, 77.2%, 51.5%)" stroke-width="1.5"></path><path d="M1278.6 532.15L1132.08 410.41" stroke="hsl(228.5, 77.2%, 51.5%)" stroke-width="1.5"></path><path d="M1278.6 532.15L1427.9 676.79" stroke="hsl(228.5, 77.2%, 51.5%)" stroke-width="1.5"></path><path d="M1422.97 -85.06L1422.97 -85.06" stroke="hsl(228.5, 77.2%, 51.5%)" stroke-width="1.5"></path><path d="M1422.97 -85.06L1596.78 -104.59" stroke="hsl(228.5, 77.2%, 51.5%)" stroke-width="1.5"></path><path d="M1422.97 -85.06L1305.79 67.73" stroke="hsl(228.5, 77.2%, 51.5%)" stroke-width="1.5"></path><path d="M1422.97 -85.06L1581.85 42.02" stroke="hsl(228.5, 77.2%, 51.5%)" stroke-width="1.5"></path><path d="M1422.97 -85.06L1414.89 224.06" stroke="hsl(228.5, 77.2%, 51.5%)" stroke-width="1.5"></path><path d="M1414.89 224.06L1414.89 224.06" stroke="hsl(228.5, 77.2%, 51.5%)" stroke-width="1.5"></path><path d="M1451.59 523.13L1451.59 523.13" stroke="hsl(228.5, 77.2%, 51.5%)" stroke-width="1.5"></path><path d="M1451.59 523.13L1550.38 401.63" stroke="hsl(228.5, 77.2%, 51.5%)" stroke-width="1.5"></path><path d="M1596.78 -104.59L1596.78 -104.59" stroke="hsl(228.5, 77.2%, 51.5%)" stroke-width="1.5"></path><path d="M1596.78 -104.59L1581.85 42.02" stroke="hsl(228.5, 77.2%, 51.5%)" stroke-width="1.5"></path><path d="M1596.78 -104.59L1396.65 86.55" stroke="hsl(228.5, 77.2%, 51.5%)" stroke-width="1.5"></path><path d="M1596.78 -104.59L1306.36 -70.54" stroke="hsl(228.5, 77.2%, 51.5%)" stroke-width="1.5"></path><path d="M1581.85 42.02L1581.85 42.02" stroke="hsl(228.5, 77.2%, 51.5%)" stroke-width="1.5"></path><path d="M1581.85 42.02L1396.65 86.55" stroke="hsl(228.5, 77.2%, 51.5%)" stroke-width="1.5"></path><path d="M1581.85 42.02L1414.89 224.06" stroke="hsl(228.5, 77.2%, 51.5%)" stroke-width="1.5"></path><path d="M1581.85 42.02L1305.79 67.73" stroke="hsl(228.5, 77.2%, 51.5%)" stroke-width="1.5"></path><path d="M1550.38 401.63L1550.38 401.63" stroke="hsl(228.5, 77.2%, 51.5%)" stroke-width="1.5"></path><path d="M1577.34 646.32L1577.34 646.32" stroke="hsl(228.5, 77.2%, 51.5%)" stroke-width="1.5"></path><path d="M1577.34 646.32L1451.59 523.13" stroke="hsl(228.5, 77.2%, 51.5%)" stroke-width="1.5"></path><path d="M1577.34 646.32L1550.38 401.63" stroke="hsl(228.5, 77.2%, 51.5%)" stroke-width="1.5"></path><circle r="25" cx="43.54" cy="530.39" fill="url(&quot;#SvgjsRadialGradient1455&quot;)"></circle><circle r="25" cx="658.18" cy="517.01" fill="url(&quot;#SvgjsRadialGradient1455&quot;)"></circle><circle r="25" cx="1132.08" cy="410.41" fill="url(&quot;#SvgjsRadialGradient1455&quot;)"></circle><circle r="25" cx="1305.79" cy="67.73" fill="url(&quot;#SvgjsRadialGradient1455&quot;)"></circle><circle r="25" cx="1270.78" cy="656.96" fill="url(&quot;#SvgjsRadialGradient1455&quot;)"></circle><circle r="25" cx="1396.65" cy="86.55" fill="url(&quot;#SvgjsRadialGradient1455&quot;)"></circle><circle r="25" cx="1405.02" cy="390.13" fill="url(&quot;#SvgjsRadialGradient1455&quot;)"></circle><circle r="25" cx="1427.9" cy="676.79" fill="url(&quot;#SvgjsRadialGradient1455&quot;)"></circle><circle r="25" cx="1603.79" cy="203.46" fill="url(&quot;#SvgjsRadialGradient1455&quot;)"></circle><circle r="25" cx="1602.2" cy="544.5" fill="url(&quot;#SvgjsRadialGradient1455&quot;)"></circle><circle r="5" cx="-86.31" cy="706.09" fill="#8b9ad9"></circle><circle r="5" cx="199.52" cy="550.09" fill="#8b9ad9"></circle><circle r="5" cx="187.57" cy="704.74" fill="#8b9ad9"></circle><circle r="5" cx="349.7" cy="559.51" fill="#8b9ad9"></circle><circle r="5" cx="410.79" cy="689.84" fill="#8b9ad9"></circle><circle r="5" cx="543.58" cy="493.12" fill="#8b9ad9"></circle><circle r="5" cx="659.29" cy="408.94" fill="#8b9ad9"></circle><circle r="5" cx="683.04" cy="644.84" fill="#8b9ad9"></circle><circle r="5" cx="851.57" cy="406.44" fill="#8b9ad9"></circle><circle r="5" cx="795.78" cy="525.84" fill="#8b9ad9"></circle><circle r="5" cx="813.95" cy="651.18" fill="#8b9ad9"></circle><circle r="5" cx="951.79" cy="350.53" fill="#8b9ad9"></circle><circle r="5" cx="1007.33" cy="490.74" fill="#8b9ad9"></circle><circle r="5" cx="981.3" cy="692.5" fill="#8b9ad9"></circle><circle r="5" cx="1128.03" cy="187.69" fill="#8b9ad9"></circle><circle r="5" cx="1094.35" cy="687.1" fill="#8b9ad9"></circle><circle r="5" cx="1306.36" cy="-70.54" fill="#8b9ad9"></circle><circle r="5" cx="1302.84" cy="206.17" fill="#8b9ad9"></circle><circle r="5" cx="1255.06" cy="379.09" fill="#8b9ad9"></circle><circle r="5" cx="1278.6" cy="532.15" fill="#8b9ad9"></circle><circle r="5" cx="1422.97" cy="-85.06" fill="#8b9ad9"></circle><circle r="5" cx="1414.89" cy="224.06" fill="#8b9ad9"></circle><circle r="5" cx="1451.59" cy="523.13" fill="#8b9ad9"></circle><circle r="5" cx="1596.78" cy="-104.59" fill="#8b9ad9"></circle><circle r="5" cx="1581.85" cy="42.02" fill="#8b9ad9"></circle><circle r="5" cx="1550.38" cy="401.63" fill="#8b9ad9"></circle><circle r="5" cx="1577.34" cy="646.32" fill="#8b9ad9"></circle></g><defs><mask id="SvgjsMask1453"><rect width="1440" height="560" fill="#ffffff"></rect></mask><linearGradient x1="84.72%" y1="-39.29%" x2="15.28%" y2="139.29%" gradientUnits="userSpaceOnUse" id="SvgjsLinearGradient1454"><stop stop-color="#0e2a47" offset="0"></stop><stop stop-color="rgba(24, 26, 32, 1)" offset="1"></stop></linearGradient><radialGradient id="SvgjsRadialGradient1455"><stop stop-color="#ffffff" offset="0.1"></stop><stop stop-color="#1735b3" offset="0.2"></stop><stop stop-color="rgba(23, 53, 179, 0)" offset="1"></stop></radialGradient></defs></svg>