<svg id="visual" viewBox="0 0 900 600" width="900" height="600" xmlns="http://www.w3.org/2000/svg" xmlns:xlink="http://www.w3.org/1999/xlink" version="1.1"><path d="M0 535L25 536.7C50 538.3 100 541.7 150 541C200 540.3 250 535.7 300 531.8C350 528 400 525 450 524.2C500 523.3 550 524.7 600 529.3C650 534 700 542 750 546.5C800 551 850 552 875 552.5L900 553L900 601L875 601C850 601 800 601 750 601C700 601 650 601 600 601C550 601 500 601 450 601C400 601 350 601 300 601C250 601 200 601 150 601C100 601 50 601 25 601L0 601Z" fill="#181a20" stroke-linecap="round" stroke-linejoin="miter"></path></svg>